<svg class="logo" viewBox="0 0 310 310" style="enable-background:new 0 0 310 310;" xml:space="preserve">
	<g>
		<path class="logo-circle-1" d="M155.4,16c37.1,0,72,14.5,98.3,40.7c26.3,26.3,40.7,61.2,40.7,98.3s-14.5,72-40.7,98.3
		c-26.3,26.3-61.2,40.7-98.3,40.7s-72-14.5-98.3-40.7C30.8,227,16.4,192.1,16.4,155s14.5-72,40.7-98.3C83.3,30.5,118.2,16,155.4,16
		 M155.4,5C72.5,5,5.4,72.2,5.4,155s67.2,150,150,150s150-67.2,150-150S238.2,5,155.4,5L155.4,5z"/>
		<path class="logo-circle-2" d="M155.4,36c31.8,0,61.7,12.4,84.1,34.9s34.9,52.4,34.9,84.1s-12.4,61.7-34.9,84.1S187.2,274,155.4,274
			s-61.7-12.4-84.1-34.9S36.4,186.8,36.4,155s12.4-61.7,34.9-84.1S123.6,36,155.4,36 M155.4,25c-71.8,0-130,58.2-130,130
			s58.2,130,130,130s130-58.2,130-130S227.2,25,155.4,25L155.4,25z"/>
		<path class="logo-circle-3" d="M155.4,56c54.6,0,99,44.4,99,99s-44.4,99-99,99s-99-44.4-99-99S100.8,56,155.4,56 M155.4,45
			c-60.8,0-110,49.2-110,110s49.2,110,110,110s110-49.2,110-110S216.1,45,155.4,45L155.4,45z"/>
	</g>
	<polygon class="logo-letter" points="153.9,28.7 34,234 68,234 154.9,82 243,234 276.8,234 "/>
</svg>
